<?xml version="1.0" encoding="iso-8859-1"?>
<!-- Generator: Adobe Illustrator 19.0.0, SVG Export Plug-In . SVG Version: 6.00 Build 0)  -->
<svg xmlns="http://www.w3.org/2000/svg" xmlns:xlink="http://www.w3.org/1999/xlink" version="1.1" id="Layer_1" x="0px" y="0px" viewBox="0 0 510.75 510.75" style="enable-background:new 0 0 510.75 510.75;" xml:space="preserve" width="512" height="512">
<g>
	<path style="fill:#E8F4FA;" d="M263.75,135.125v-40c0-4.418,3.582-8,8-8h80c4.418,0,8,3.582,8,8v40"/>
	<rect x="263.75" y="111.125" style="fill:#B0D7EB;" width="96" height="24"/>
	<rect x="207.75" y="391.125" style="fill:#627B8C;" width="208" height="24"/>
	<path style="fill:#8CA4B8;" d="M463.75,391.125v56c0,4.418-3.582,8-8,8h-32c-4.418,0-8-3.582-8-8v-56"/>
	<path style="fill:#8CA4B8;" d="M207.75,391.125v56c0,4.418-3.582,8-8,8h-32c-4.418,0-8-3.582-8-8v-56"/>
	<path style="fill:#FEEF7F;" d="M487.75,391.125v-64l-48-48v-128c0-8.837-7.163-16-16-16h-224c-8.837,0-16,7.163-16,16v128l-48,48   v64"/>
	<rect x="423.75" y="327.125" style="fill:#B0D7EB;" width="64" height="64"/>
	<rect x="199.75" y="327.125" style="fill:#EA9A10;" width="224" height="64"/>
	<rect x="135.75" y="327.125" style="fill:#B0D7EB;" width="64" height="64"/>
	<rect x="183.75" y="167.125" style="fill:#A6E7FF;" width="256" height="112"/>
	<rect x="415.75" y="167.125" style="fill:#2AC3F2;" width="24" height="112"/>
	<polygon style="fill:#8CA4B8;" points="159.75,263.125 119.75,263.125 119.75,223.125 143.75,223.125 159.75,239.125  "/>
	<polygon style="fill:#8CA4B8;" points="463.75,263.125 503.75,263.125 503.75,223.125 479.75,223.125 463.75,239.125  "/>
	<polyline style="fill:#8CA4B8;" points="79.75,367.125 79.75,455.125 47.75,455.125 47.75,367.125  "/>
	<circle style="fill:#FEEF7F;" cx="63.75" cy="111.125" r="56"/>
	<g>
		<path d="M494.75,324.019l-48-48V151.125c0-12.958-10.042-23-23-23h-57v-33c0-8.547-6.453-15-15-15h-80c-8.547,0-16,6.453-16,15v33    h-56c-12.958,0-24,10.042-24,23v124.894l-48,48v60.106h-8v15h32v48c0,8.547,7.453,16,16,16h32c8.547,0,15-7.453,15-16v-48h193v9    h-176v15h176v24c0,8.547,7.453,16,16,16h32c8.547,0,15-7.453,15-16v-48h33v-15h-9V324.019z M270.75,95.125c0-0.276,0.725,0,1,0h80    v33h-81V95.125z M190.75,151.125c0-4.687,4.314-8,9-8h224c4.686,0,8,3.313,8,8v9h-241V151.125z M190.75,175.125h241v97h-241    V175.125z M186.856,287.125h249.787l33,33H153.856L186.856,287.125z M142.75,384.125v-49h49v49H142.75z M199.75,448.125h-32    c-0.275,0-1-0.724-1-1v-48h33v48C199.75,447.401,200.025,448.125,199.75,448.125z M415.75,384.125h-209v-49h209V384.125z     M455.75,448.125h-32c-0.275,0-1-0.724-1-1v-48h33v48C455.75,447.401,456.025,448.125,455.75,448.125z M479.75,384.125h-49v-49h49    V384.125z"/>
		<rect x="236.25" y="187.527" transform="matrix(-0.7071 -0.7071 0.7071 -0.7071 255.5213 560.0834)" width="15" height="79.196"/>
		<rect x="216.25" y="184.498" transform="matrix(0.7071 0.7071 -0.7071 0.7071 211.98 -97.5491)" width="15" height="45.255"/>
		<rect x="231.75" y="352.125" width="160" height="15"/>
		<path d="M166.75,236.019l-19.894-19.894H111.75v55h55V236.019z M151.75,256.125h-25v-25h13.894l11.106,11.106V256.125z"/>
		<path d="M476.644,216.125l-20.894,19.894v35.106h55v-55H476.644z M495.75,256.125h-25v-13.894l12.106-11.106h12.894V256.125z"/>
		<path d="M63.75,47.625C28.736,47.625,0,76.111,0,111.125c0,32.475,24.75,59.318,55.75,63.042v168.958h15V174.167    c32-3.724,56.25-30.567,56.25-63.042C127,76.111,98.764,47.625,63.75,47.625z M63.75,159.625c-26.743,0-48.5-21.757-48.5-48.5    s21.757-48.5,48.5-48.5s48.5,21.757,48.5,48.5S90.493,159.625,63.75,159.625z"/>
		<polygon points="39.75,103.125 55.75,103.125 55.75,143.125 70.75,143.125 70.75,103.125 87.75,103.125 87.75,88.125     39.75,88.125   "/>
		<path d="M31.75,375.125h8v88h47v-88h9v-15h-64V375.125z M54.75,375.125h17v73h-17V375.125z"/>
	</g>
	<g>
		<g>
			<rect x="335.75" y="239.625" style="fill:#FFFFFF;" width="16" height="15"/>
		</g>
		<g>
			<rect x="303.75" y="239.625" style="fill:#FFFFFF;" width="16" height="15"/>
		</g>
		<g>
			<rect x="271.75" y="239.625" style="fill:#FFFFFF;" width="16" height="15"/>
		</g>
	</g>
</g>















</svg>
