<?xml version="1.0" encoding="iso-8859-1"?>
<!-- Generator: Adobe Illustrator 19.0.0, SVG Export Plug-In . SVG Version: 6.00 Build 0)  -->
<svg xmlns="http://www.w3.org/2000/svg" xmlns:xlink="http://www.w3.org/1999/xlink" version="1.1" id="Layer_1" x="0px" y="0px" viewBox="0 0 511 511" style="enable-background:new 0 0 511 511;" xml:space="preserve" width="512" height="512">
<g>
	<rect x="71.5" y="463.25" style="fill:#8CA4B8;" width="368" height="24"/>
	<rect x="71.5" y="343.25" style="fill:#8CA4B8;" width="368" height="24"/>
	<rect x="327.5" y="343.25" style="fill:#627B8C;" width="112" height="24"/>
	<rect x="71.5" y="223.25" style="fill:#8CA4B8;" width="368" height="24"/>
	<rect x="327.5" y="223.25" style="fill:#627B8C;" width="112" height="24"/>
	<rect x="71.5" y="103.25" style="fill:#8CA4B8;" width="368" height="24"/>
	<rect x="327.5" y="103.25" style="fill:#627B8C;" width="112" height="24"/>
	<rect x="87.5" y="127.25" style="fill:#E8F4FA;" width="336" height="96"/>
	<rect x="327.5" y="127.25" style="fill:#B0D7EB;" width="96" height="96"/>
	<rect x="87.5" y="367.25" style="fill:#EA9A10;" width="336" height="96"/>
	<rect x="87.5" y="367.25" style="fill:#E8F4FA;" width="336" height="96"/>
	<rect x="327.5" y="367.25" style="fill:#B0D7EB;" width="96" height="96"/>
	<rect x="87.5" y="247.25" style="fill:#EA9A10;" width="336" height="96"/>
	<rect x="87.5" y="247.25" style="fill:#E8F4FA;" width="336" height="96"/>
	<rect x="327.5" y="247.25" style="fill:#B0D7EB;" width="96" height="96"/>
	<polyline style="fill:#FEEF7F;" points="183.5,487.25 183.5,87.25 327.5,87.25 327.5,487.25  "/>
	<polyline style="fill:#EA9A10;" points="303.5,487.25 303.5,87.25 327.5,87.25 327.5,487.25  "/>
	<g>
		<rect x="223.5" y="127.25" style="fill:#A6E7FF;" width="64" height="32"/>
		<rect x="263.5" y="127.25" style="fill:#2AC3F2;" width="24" height="32"/>
		<rect x="223.5" y="191.25" style="fill:#A6E7FF;" width="64" height="32"/>
		<rect x="263.5" y="191.25" style="fill:#2AC3F2;" width="24" height="32"/>
	</g>
	<g>
		<rect x="223.5" y="255.25" style="fill:#A6E7FF;" width="64" height="32"/>
		<rect x="263.5" y="255.25" style="fill:#2AC3F2;" width="24" height="32"/>
	</g>
	<g>
		<rect x="223.5" y="319.25" style="fill:#A6E7FF;" width="64" height="32"/>
		<rect x="263.5" y="319.25" style="fill:#2AC3F2;" width="24" height="32"/>
	</g>
	<rect x="223.5" y="415.25" style="fill:#A6E7FF;" width="64" height="72"/>
	<rect x="119.5" y="159.25" style="fill:#A6E7FF;" width="32" height="32"/>
	<rect x="119.5" y="279.25" style="fill:#A6E7FF;" width="32" height="32"/>
	<rect x="119.5" y="399.25" style="fill:#A6E7FF;" width="32" height="32"/>
	<rect x="359.5" y="159.25" style="fill:#2AC3F2;" width="32" height="32"/>
	<rect x="359.5" y="279.25" style="fill:#2AC3F2;" width="32" height="32"/>
	<rect x="359.5" y="399.25" style="fill:#2AC3F2;" width="32" height="32"/>
	<g>
		<g>
			<rect x="279.5" y="375.75" style="fill:#FFFFFF;" width="16" height="15"/>
		</g>
		<g>
			<rect x="247.5" y="375.75" style="fill:#FFFFFF;" width="16" height="15"/>
		</g>
		<g>
			<rect x="215.5" y="375.75" style="fill:#FFFFFF;" width="16" height="15"/>
		</g>
	</g>
	<g>
		<path style="fill:#E8F4FA;" d="M7.5,55.25c0-8.837,7.163-16,16-16s16,7.163,16,16"/>
		<path style="fill:#B0D7EB;" d="M39.5,55.25c0-17.673,14.327-32,32-32s32,14.327,32,32"/>
		<g>
			<path style="fill:#E8F4FA;" d="M407.5,55.25c0-8.837,7.163-16,16-16s16,7.163,16,16"/>
			<path style="fill:#B0D7EB;" d="M439.5,55.25c0-17.673,14.327-32,32-32s32,14.327,32,32"/>
			<g>
				<path d="M294.5,120.25h-79v47h79V120.25z M279.5,152.25h-49v-17h49V152.25z"/>
				<path d="M294.5,184.25h-79v47h79V184.25z M279.5,216.25h-49v-17h49V216.25z"/>
				<path d="M294.5,248.25h-79v47h79V248.25z M279.5,280.25h-49v-17h49V280.25z"/>
				<path d="M294.5,312.25h-79v47h79V312.25z M279.5,344.25h-49v-17h49V344.25z"/>
				<path d="M446.5,456.25h-16v-81h16v-39h-16v-81h16v-39h-16v-81h16v-39h-112v-16h-159v16h-112v39h16v81h-16v39h16v81h-16v39h16v81      h-16v24h-16v15h416v-15h-17V456.25z M175.5,480.25h-97v-9h97V480.25z M175.5,456.25h-81v-81h65v-15h-81v-9h97V456.25z       M175.5,336.25h-81v-81h81V336.25z M175.5,240.25h-97v-9h97V240.25z M175.5,216.25h-81v-81h81V216.25z M175.5,120.25h-97v-9h97      V120.25z M334.5,111.25h97v9h-97V111.25z M334.5,135.25h81v81h-64v15h80v9h-97V135.25z M334.5,255.25h81v81h-81V255.25z       M334.5,351.25h97v9h-97V351.25z M334.5,375.25h81v81h-81V375.25z M247.5,480.25h-17v-57h17V480.25z M279.5,480.25h-17v-57h17      V480.25z M319.5,480.25h-25v-57h9v-15h-96v15h8v57h-25v-385h129V480.25z M431.5,480.25h-97v-9h97V480.25z"/>
				<path d="M158.5,152.25h-47v47h47V152.25z M143.5,184.25h-17v-17h17V184.25z"/>
				<path d="M158.5,272.25h-47v47h47V272.25z M143.5,304.25h-17v-17h17V304.25z"/>
				<path d="M111.5,439.25h47v-47h-47V439.25z M126.5,407.25h17v17h-17V407.25z"/>
				<path d="M398.5,152.25h-47v47h47V152.25z M383.5,184.25h-17v-17h17V184.25z"/>
				<path d="M351.5,319.25h47v-47h-47V319.25z M366.5,287.25h17v17h-17V287.25z"/>
				<path d="M351.5,439.25h47v-47h-47V439.25z M366.5,407.25h17v17h-17V407.25z"/>
				<path d="M71.5,30.75c13.51,0,24.5,10.991,24.5,24.5h15c0-21.78-17.72-39.5-39.5-39.5c-14.809,0-27.733,8.196-34.495,20.286      C33.181,33.34,28.524,31.75,23.5,31.75C10.542,31.75,0,42.292,0,55.25h15c0-4.687,3.813-8.5,8.5-8.5s8.5,3.813,8.5,8.5h15      C47,41.741,57.99,30.75,71.5,30.75z"/>
				<path d="M471.5,15.75c-14.809,0-27.733,8.196-34.495,20.286c-3.824-2.696-8.481-4.286-13.505-4.286      c-12.958,0-23.5,10.542-23.5,23.5h15c0-4.687,3.814-8.5,8.5-8.5s8.5,3.813,8.5,8.5h15c0-13.509,10.99-24.5,24.5-24.5      S496,41.741,496,55.25h15C511,33.47,493.28,15.75,471.5,15.75z"/>
			</g>
		</g>
	</g>
</g>















</svg>
