<?xml version="1.0" encoding="iso-8859-1"?>
<!-- Generator: Adobe Illustrator 19.0.0, SVG Export Plug-In . SVG Version: 6.00 Build 0)  -->
<svg xmlns="http://www.w3.org/2000/svg" xmlns:xlink="http://www.w3.org/1999/xlink" version="1.1" id="Layer_1" x="0px" y="0px" viewBox="0 0 512 512" style="enable-background:new 0 0 512 512;" xml:space="preserve" width="512" height="512">
<g>
	<g>
		<rect x="264" y="343.75" style="fill:#EA9A10;" width="184" height="32"/>
		<circle style="fill:#87E6DE;" cx="144" cy="183.75" r="80"/>
		<path style="fill:#1CB7BD;" d="M119.977,255.75c44.183,0,80-35.817,80-80c0-30.838-17.46-57.583-43.023-70.937    c38.009,6.202,67.023,39.174,67.023,78.937c0,44.183-35.817,80-80,80c-13.344,0-25.915-3.285-36.977-9.063    C111.225,255.376,115.556,255.75,119.977,255.75z"/>
		<rect x="280" y="263.75" style="fill:#FEEF7F;" width="152" height="48"/>
		<circle style="fill:#1CB7BD;" cx="200" cy="287.75" r="32"/>
		<g>
			<g>
				<rect x="376" y="280.25" style="fill:#FFFFFF;" width="16" height="15"/>
			</g>
			<g>
				<rect x="344" y="280.25" style="fill:#FFFFFF;" width="16" height="15"/>
			</g>
			<g>
				<rect x="312" y="280.25" style="fill:#FFFFFF;" width="16" height="15"/>
			</g>
		</g>
	</g>
	<g>
		<path style="fill:#E8F4FA;" d="M24,63.75c0-8.837,7.163-16,16-16c8.837,0,16,7.163,16,16"/>
		<path style="fill:#B0D7EB;" d="M56,63.75c0-17.673,14.327-32,32-32c17.673,0,32,14.327,32,32"/>
	</g>
	<g>
		<path style="fill:#E8F4FA;" d="M208,79.75c0-8.837,7.163-16,16-16c8.837,0,16,7.163,16,16"/>
		<path style="fill:#B0D7EB;" d="M240,79.75c0-17.673,14.327-32,32-32c17.673,0,32,14.327,32,32"/>
		<g>
			<path d="M439,408.75v-25h16v-47h-16v-97h-15v17H287v-17h-15v97h-16v47h16v25H151v-61.894l26.64-26.39     c6.313,4.28,14.049,6.784,22.235,6.784c21.78,0,39.562-17.72,39.562-39.5c0-20.793-16.121-37.872-36.536-39.38     c17.543-16.013,28.583-39.053,28.583-64.62c0-48.248-39.245-87.5-87.492-87.5c-48.248,0-87.746,39.252-87.746,87.5     c0,45.721,35.754,83.358,79.754,87.175V408.75H0v15h512v-15H439z M151,325.644v-54.718c5-0.408,9.7-1.199,14.231-2.346     c-3.168,5.682-4.981,12.217-4.981,19.171c0,8.185,2.503,15.796,6.784,22.11L151,325.644z M224.5,287.75     c0,13.509-10.991,24.5-24.5,24.5c-4.027,0-7.827-0.983-11.182-2.712l16.485-16.485l-10.606-10.606l-16.485,16.485     c-1.729-3.355-2.712-7.155-2.712-11.182c0-13.509,10.991-24.5,24.5-24.5C213.509,263.25,224.5,274.241,224.5,287.75z      M136,197.644l-26.947-27.197l-10.731,10.606L136,218.856v37.006c-36-3.765-64.75-34.668-64.75-72.113     c0-39.977,32.648-72.5,72.625-72.5s72.312,32.523,72.312,72.5c0,37.444-28.187,68.347-65.187,72.113V151.75h-15V197.644z      M287,271.75h137v33H287V271.75z M287,319.75h137v17H287V319.75z M424,408.75H287v-40h-16v-17h169v17H304v15h120V408.75z"/>
			<rect x="360" y="440.75" width="120" height="15"/>
			<rect x="32" y="440.75" width="312" height="15"/>
			<rect x="64" y="472.75" width="384" height="15"/>
			<path d="M40,55.25c4.687,0,8.5,3.813,8.5,8.5h15c0-13.509,10.991-24.5,24.5-24.5c13.509,0,24.5,10.991,24.5,24.5h15     c0-21.78-17.72-39.5-39.5-39.5c-14.809,0-27.733,8.196-34.495,20.286C49.681,41.84,45.024,40.25,40,40.25     c-12.958,0-23.5,10.542-23.5,23.5h15C31.5,59.063,35.313,55.25,40,55.25z"/>
			<path d="M224,71.25c4.687,0,8.5,3.813,8.5,8.5h15c0-13.509,10.991-24.5,24.5-24.5c13.509,0,24.5,10.991,24.5,24.5h15     c0-21.78-17.72-39.5-39.5-39.5c-14.809,0-27.733,8.196-34.495,20.286c-3.824-2.696-8.481-4.286-13.505-4.286     c-12.958,0-23.5,10.542-23.5,23.5h15C215.5,75.063,219.313,71.25,224,71.25z"/>
		</g>
	</g>
</g>















</svg>
