<?xml version="1.0" encoding="iso-8859-1"?>
<!-- Generator: Adobe Illustrator 19.0.0, SVG Export Plug-In . SVG Version: 6.00 Build 0)  -->
<svg xmlns="http://www.w3.org/2000/svg" xmlns:xlink="http://www.w3.org/1999/xlink" version="1.1" id="Layer_1" x="0px" y="0px" viewBox="0 0 512 512" style="enable-background:new 0 0 512 512;" xml:space="preserve" width="512" height="512">
<g>
	<polyline style="fill:#FF512E;" points="240,95.75 80,95.75 8,167.75 8,175.75 160,175.75  "/>
	<polyline style="fill:#FF512E;" points="272,95.75 432,95.75 504,167.75 504,175.75 352,175.75  "/>
	<rect x="24" y="175.75" style="fill:#EA9A10;" width="464" height="272"/>
	<polyline style="fill:#FF907A;" points="80,223.75 136,223.75 136,263.75 80,263.75  "/>
	<polyline style="fill:#FEEF7F;" points="160,447.75 160,175.75 256,79.75 352,175.75 352,447.75  "/>
	<polygon style="fill:#EA9A10;" points="352,175.75 352,447.75 328,447.75 328,151.75  "/>
	<g>
		<g>
			<rect x="280" y="304.25" style="fill:#FFFFFF;" width="16" height="15"/>
		</g>
		<g>
			<rect x="248" y="304.25" style="fill:#FFFFFF;" width="16" height="15"/>
		</g>
		<g>
			<rect x="216" y="304.25" style="fill:#FFFFFF;" width="16" height="15"/>
		</g>
	</g>
	<g>
		<rect x="224" y="375.75" style="fill:#A6E7FF;" width="64" height="72"/>
		<rect x="208" y="351.75" style="fill:#B0D7EB;" width="96" height="24"/>
	</g>
	<circle style="fill:#FFFFFF;" cx="256" cy="207.75" r="48"/>
	<rect x="56" y="295.75" style="fill:#2AC3F2;" width="72" height="32"/>
	<rect x="56" y="367.75" style="fill:#2AC3F2;" width="72" height="32"/>
	<rect x="384" y="223.75" style="fill:#2AC3F2;" width="72" height="32"/>
	<rect x="384" y="295.75" style="fill:#2AC3F2;" width="72" height="32"/>
	<rect x="384" y="367.75" style="fill:#2AC3F2;" width="72" height="32"/>
	<g>
		<path style="fill:#E8F4FA;" d="M24,63.75c0-8.837,7.163-16,16-16s16,7.163,16,16"/>
		<path style="fill:#B0D7EB;" d="M56,63.75c0-17.673,14.327-32,32-32s32,14.327,32,32"/>
		<g>
			<path style="fill:#E8F4FA;" d="M392,63.75c0-8.837,7.163-16,16-16s16,7.163,16,16"/>
			<path style="fill:#B0D7EB;" d="M424,63.75c0-17.673,14.327-32,32-32s32,14.327,32,32"/>
			<g>
				<path d="M495,440.75v-257h16v-19.106L435.106,88.75h-160L256,69.644L236.894,88.75h-160L0,164.644v19.106h16v257H0v15h56v-15H31      v-257h121v257h-48v15h408v-15H495z M18.106,168.75l65-65h138.787l-65,65H18.106z M248,440.75h-17v-57h17V440.75z M215,368.75v-9      h81v9H215z M280,440.75h-17v-57h17V440.75z M344,440.75h-49v-57h16v-39H200v39h16v57h-49V178.856l88.5-88.5l88.5,88.5V440.75z       M480,440.75H359v-257h121V440.75z M355.106,168.75l-65-65h138.787l65,65H355.106z"/>
				<path d="M200.5,207.75c0,30.602,24.898,55.5,55.5,55.5s55.5-24.898,55.5-55.5s-24.897-55.5-55.5-55.5      S200.5,177.148,200.5,207.75z M256,167.25c22.332,0,40.5,18.168,40.5,40.5s-18.168,40.5-40.5,40.5s-40.5-18.168-40.5-40.5      S233.668,167.25,256,167.25z"/>
				<polygon points="277.054,226.446 263,212.644 263,183.75 248,183.75 248,218.856 266.321,237.054     "/>
				<path d="M463,216.75h-87v47h87V216.75z M448,248.75h-57v-17h57V248.75z"/>
				<path d="M463,288.75h-87v47h87V288.75z M448,320.75h-57v-17h57V320.75z"/>
				<path d="M463,360.75h-87v47h87V360.75z M448,392.75h-57v-17h57V392.75z"/>
				<path d="M87,407.75h48v-47H87v-25h48v-47H87v-17h56v-55H87v-9H72v81H48v47h24v25H48v47h24v65H48v15h64v-15H87V407.75z       M87,231.75h41v25H87V231.75z M87,303.75h33v17H87V303.75z M87,375.75h33v17H87V375.75z M72,392.75h-9v-17h9V392.75z M72,320.75      h-9v-17h9V320.75z"/>
				<path d="M40,55.25c4.687,0,8.5,3.813,8.5,8.5h15c0-13.51,10.99-24.5,24.5-24.5s24.5,10.99,24.5,24.5h15      c0-21.78-17.72-39.5-39.5-39.5c-14.809,0-27.733,8.196-34.494,20.286C49.681,41.84,45.024,40.25,40,40.25      c-12.958,0-23.5,10.542-23.5,23.5h15C31.5,59.063,35.313,55.25,40,55.25z"/>
				<path d="M408,55.25c4.686,0,8.5,3.813,8.5,8.5h15c0-13.51,10.99-24.5,24.5-24.5s24.5,10.99,24.5,24.5h15      c0-21.78-17.72-39.5-39.5-39.5c-14.809,0-27.733,8.196-34.495,20.286c-3.824-2.696-8.481-4.286-13.505-4.286      c-12.958,0-23.5,10.542-23.5,23.5h15C399.5,59.063,403.314,55.25,408,55.25z"/>
			</g>
		</g>
	</g>
</g>















</svg>
