<?xml version="1.0" encoding="iso-8859-1"?>
<!-- Generator: Adobe Illustrator 19.0.0, SVG Export Plug-In . SVG Version: 6.00 Build 0)  -->
<svg xmlns="http://www.w3.org/2000/svg" xmlns:xlink="http://www.w3.org/1999/xlink" version="1.1" id="Layer_1" x="0px" y="0px" viewBox="0 0 512 512" style="enable-background:new 0 0 512 512;" xml:space="preserve" width="512" height="512">
<g>
	<rect x="80" y="71.5" style="fill:#E8F4FA;" width="352" height="368"/>
	<g>
		<rect x="176" y="367.5" style="fill:#A6E7FF;" width="64" height="72"/>
		<rect x="160" y="343.5" style="fill:#B0D7EB;" width="96" height="24"/>
	</g>
	<rect x="336" y="71.5" style="fill:#B0D7EB;" width="96" height="368"/>
	<g>
		<g>
			<rect x="232" y="304" style="fill:#FFFFFF;" width="16" height="15"/>
		</g>
		<g>
			<rect x="200" y="304" style="fill:#FFFFFF;" width="16" height="15"/>
		</g>
		<g>
			<rect x="168" y="304" style="fill:#FFFFFF;" width="16" height="15"/>
		</g>
	</g>
	<rect x="112" y="231.5" style="fill:#A6E7FF;" width="192" height="48"/>
	<rect x="112" y="135.5" style="fill:#A6E7FF;" width="192" height="48"/>
	<polygon style="fill:#FF907A;" points="224,39.5 256,39.5 256,71.5 224,71.5 224,103.5 192,103.5 192,71.5 160,71.5 160,39.5    192,39.5 192,7.5 224,7.5  "/>
	<g>
		<rect x="368" y="135.5" style="fill:#2AC3F2;" width="32" height="48"/>
		<rect x="368" y="231.5" style="fill:#2AC3F2;" width="32" height="48"/>
		<rect x="368" y="327.5" style="fill:#2AC3F2;" width="32" height="48"/>
	</g>
	<g>
		<path d="M311,128.5H104v63h207V128.5z M152,176.5h-33v-33h33V176.5z M200,176.5h-33v-33h33V176.5z M248,176.5h-33v-33h33V176.5z     M296,176.5h-33v-33h33V176.5z"/>
		<path d="M104,287.5h207v-63H104V287.5z M263,239.5h33v33h-33V239.5z M215,239.5h33v33h-33V239.5z M167,239.5h33v33h-33V239.5z     M119,239.5h33v33h-33V239.5z"/>
		<path d="M184,111.5h47v-32h32v-47h-32v-32h-47v32h-32v47h32V111.5z M167,64.5v-17h32v-32h17v32h32v17h-32v32h-17v-32H167z"/>
		<path d="M407,128.5h-47v63h47V128.5z M392,176.5h-17v-33h17V176.5z"/>
		<path d="M407,224.5h-47v63h47V224.5z M392,272.5h-17v-33h17V272.5z"/>
		<path d="M407,320.5h-47v63h47V320.5z M392,368.5h-17v-33h17V368.5z"/>
		<path d="M439,432.5v-368H280v15h48v353h-81v-57h16v-39H152v39h16v57H87v-353h49v-15H72v368H0v15h512v-15H439z M167,360.5v-9h81v9    H167z M200,432.5h-17v-57h17V432.5z M232,432.5h-17v-57h17V432.5z M424,432.5h-81v-353h81V432.5z"/>
		<rect x="360" y="464.5" width="120" height="15"/>
		<rect x="32" y="464.5" width="312" height="15"/>
		<rect x="64" y="496.5" width="384" height="15"/>
	</g>
</g>















</svg>
