<?xml version="1.0" encoding="iso-8859-1"?>
<!-- Generator: Adobe Illustrator 19.0.0, SVG Export Plug-In . SVG Version: 6.00 Build 0)  -->
<svg xmlns="http://www.w3.org/2000/svg" xmlns:xlink="http://www.w3.org/1999/xlink" version="1.1" id="Layer_1" x="0px" y="0px" viewBox="0 0 510.75 510.75" style="enable-background:new 0 0 510.75 510.75;" xml:space="preserve" width="512" height="512">
<g>
	<path style="fill:#A6E7FF;" d="M207.75,263.125v-152c0-8.837,7.163-16,16-16h208c8.837,0,16,7.163,16,16v152"/>
	<path style="fill:#2AC3F2;" d="M447.75,111.125v152h-24v-168h8C440.59,95.125,447.75,102.285,447.75,111.125z"/>
	<g>
		<g>
			<rect x="351.75" y="207.625" style="fill:#FFFFFF;" width="16" height="15"/>
		</g>
		<g>
			<rect x="319.75" y="207.625" style="fill:#FFFFFF;" width="16" height="15"/>
		</g>
		<g>
			<rect x="287.75" y="207.625" style="fill:#FFFFFF;" width="16" height="15"/>
		</g>
	</g>
	<path style="fill:#FF907A;" d="M447.75,127.125h-240v-16c0-8.837,7.163-16,16-16h208c8.837,0,16,7.163,16,16V127.125z"/>
	<rect x="279.75" y="95.125" style="fill:#E8F4FA;" width="96" height="32"/>
	<path style="fill:#FF512E;" d="M447.75,111.125v16h-24v-32h8C440.59,95.125,447.75,102.285,447.75,111.125z"/>
	<path style="fill:#FF907A;" d="M375.75,263.125h88c8.837,0,16,7.163,16,16v112h-304v-112c0-8.837,7.163-16,16-16h88v-16h96V263.125   z"/>
	<path style="fill:#FF512E;" d="M479.75,279.125v112h-24v-128h8C472.59,263.125,479.75,270.285,479.75,279.125z"/>
	<circle style="fill:#FEEF7F;" cx="231.75" cy="327.125" r="24"/>
	<circle style="fill:#FEEF7F;" cx="423.75" cy="327.125" r="24"/>
	<g>
		<rect x="255.75" y="391.125" style="fill:#627B8C;" width="144" height="24"/>
		<path style="fill:#8CA4B8;" d="M447.75,391.125v56c0,4.418-3.582,8-8,8h-32c-4.418,0-8-3.582-8-8v-56"/>
		<path style="fill:#8CA4B8;" d="M255.75,391.125v56c0,4.418-3.582,8-8,8h-32c-4.418,0-8-3.582-8-8v-56"/>
	</g>
	<polyline style="fill:#8CA4B8;" points="175.75,223.125 143.75,223.125 143.75,159.125 175.75,159.125  "/>
	<polyline style="fill:#8CA4B8;" points="471.75,223.125 503.75,223.125 503.75,159.125 471.75,159.125  "/>
	<polyline style="fill:#8CA4B8;" points="79.75,367.125 79.75,455.125 47.75,455.125 47.75,367.125  "/>
	<circle style="fill:#FEEF7F;" cx="63.75" cy="111.125" r="56"/>
	<g>
		<rect x="228.152" y="195.625" transform="matrix(0.7071 -0.7071 0.7071 0.7071 -65.2089 248.8218)" width="79.196" height="15"/>
		<rect x="240.25" y="160.498" transform="matrix(0.7071 0.7071 -0.7071 0.7071 202.0389 -121.5475)" width="15" height="45.255"/>
		<rect x="279.75" y="288.125" width="96" height="15"/>
		<rect x="279.75" y="320.125" width="96" height="15"/>
		<rect x="279.75" y="352.125" width="96" height="15"/>
		<path d="M231.75,295.625c-17.369,0-31.5,14.131-31.5,31.5s14.131,31.5,31.5,31.5s31.5-14.131,31.5-31.5    S249.119,295.625,231.75,295.625z M231.75,343.625c-9.098,0-16.5-7.402-16.5-16.5s7.402-16.5,16.5-16.5s16.5,7.402,16.5,16.5    S240.848,343.625,231.75,343.625z"/>
		<path d="M423.75,358.625c17.369,0,31.5-14.131,31.5-31.5s-14.131-31.5-31.5-31.5s-31.5,14.131-31.5,31.5    S406.381,358.625,423.75,358.625z M423.75,310.625c9.098,0,16.5,7.402,16.5,16.5s-7.402,16.5-16.5,16.5s-16.5-7.402-16.5-16.5    S414.652,310.625,423.75,310.625z"/>
		<path d="M478.75,239.125v-8h32v-79h-32v-8h-24v-33c0-12.958-10.042-23-23-23h-208c-12.958,0-24,10.042-24,23v33h-32v8h-32v79h32v8    h32v17h-8c-12.958,0-24,10.042-24,23v105h-16v15h48v48c0,8.547,7.453,16,16,16h32c8.547,0,15-7.453,15-16v-48h129v9h-112v15h112    v24c0,8.547,7.453,16,16,16h32c8.547,0,15-7.453,15-16v-48h49v-15h-17v-105c0-12.958-10.042-23-23-23h-9v-17H478.75z     M478.75,167.125h17v49h-17V167.125z M454.75,159.125h9v65h-9V159.125z M167.75,216.125h-17v-49h17V216.125z M382.75,103.125h49    c4.686,0,8,3.313,8,8v9h-57V103.125z M286.75,103.125h81v17h-81V103.125z M214.75,111.125c0-4.687,4.314-8,9-8h48v17h-57V111.125z     M214.75,135.125h105v56h15v-56h105v121h-57v-16h-111v16h-57V135.125z M182.75,224.125v-65h17v65H182.75z M247.75,448.125h-32    c-0.275,0-1-0.724-1-1v-48h33v48C247.75,447.401,248.025,448.125,247.75,448.125z M439.75,448.125h-32c-0.275,0-1-0.724-1-1v-48    h33v48C439.75,447.401,440.025,448.125,439.75,448.125z M463.75,271.125c4.686,0,8,3.313,8,8v105h-289v-105c0-4.687,4.314-8,9-8    h95v-16h81v16H463.75z"/>
		<path d="M63.75,47.625C28.736,47.625,0,76.111,0,111.125c0,32.475,24.75,59.318,55.75,63.042v168.958h15V174.167    c32-3.724,56.25-30.567,56.25-63.042C127,76.111,98.764,47.625,63.75,47.625z M63.75,159.625c-26.743,0-48.5-21.757-48.5-48.5    s21.757-48.5,48.5-48.5s48.5,21.757,48.5,48.5S90.493,159.625,63.75,159.625z"/>
		<path d="M31.75,375.125h8v88h47v-88h9v-15h-64V375.125z M54.75,375.125h17v73h-17V375.125z"/>
		<path d="M67.75,80.125h-28v63h28c10.752,0,19.5-8.998,19.5-19.75c0-4.521-1.547-8.814-4.14-12.125    c2.593-3.311,4.14-7.291,4.14-11.813C87.25,88.685,78.502,80.125,67.75,80.125z M67.75,128.125h-13v-9h13    c2.481,0,4.5,2.019,4.5,4.5S70.231,128.125,67.75,128.125z M67.75,104.125h-13v-9h13c2.481,0,4.5,2.019,4.5,4.5    S70.231,104.125,67.75,104.125z"/>
	</g>
</g>















</svg>
