<?xml version="1.0" encoding="iso-8859-1"?>
<!-- Generator: Adobe Illustrator 19.0.0, SVG Export Plug-In . SVG Version: 6.00 Build 0)  -->
<svg xmlns="http://www.w3.org/2000/svg" xmlns:xlink="http://www.w3.org/1999/xlink" version="1.1" id="Layer_1" x="0px" y="0px" viewBox="0 0 512 512" style="enable-background:new 0 0 512 512;" xml:space="preserve" width="512" height="512">
<g>
	<g>
		<path style="fill:#E8F4FA;" d="M376,91.75c0-8.837,7.163-16,16-16c8.837,0,16,7.163,16,16"/>
		<path style="fill:#B0D7EB;" d="M408,91.75c0-17.673,14.327-32,32-32c17.673,0,32,14.327,32,32"/>
	</g>
	<g>
		<path style="fill:#E8F4FA;" d="M40,91.75c0-8.837,7.163-16,16-16c8.837,0,16,7.163,16,16"/>
		<path style="fill:#B0D7EB;" d="M72,91.75c0-17.673,14.327-32,32-32c17.673,0,32,14.327,32,32"/>
	</g>
	<polygon style="fill:#FEEF7F;" points="248,451.75 24,451.75 24,275.75 136,163.75 248,275.75  "/>
	<g>
		<g>
			<rect x="160" y="268.25" style="fill:#FFFFFF;" width="16" height="15"/>
		</g>
		<g>
			<rect x="128" y="268.25" style="fill:#FFFFFF;" width="16" height="15"/>
		</g>
		<g>
			<rect x="96" y="268.25" style="fill:#FFFFFF;" width="16" height="15"/>
		</g>
	</g>
	<rect x="248" y="275.75" style="fill:#EA9A10;" width="240" height="176"/>
	<rect x="320" y="323.75" style="fill:#A6E7FF;" width="96" height="80"/>
	<rect x="392" y="323.75" style="fill:#2AC3F2;" width="24" height="80"/>
	<polyline style="fill:#FF907A;" points="72,451.75 72,323.75 200,323.75 200,451.75  "/>
	<polyline style="fill:#FF512E;" points="176,451.75 176,323.75 200,323.75 200,451.75  "/>
	<polygon style="fill:#8CA4B8;" points="384,131.75 144,131.75 264,251.75 264,275.75 504,275.75 504,251.75  "/>
	<polyline style="fill:#627B8C;" points="264,251.75 264,275.75 504,275.75 504,251.75  "/>
	<polyline style="fill:#EA9A10;" points="48,211.75 48,139.75 88,139.75 88,171.75  "/>
	<g>
		<polygon style="fill:#8CA4B8;" points="136,123.75 8,251.75 8,291.75 136,163.75 264,291.75 264,251.75   "/>
	</g>
	<g>
		<path d="M392,83.25c4.687,0,8.5,3.813,8.5,8.5h15c0-13.509,10.991-24.5,24.5-24.5c13.509,0,24.5,10.991,24.5,24.5h15    c0-21.78-17.72-39.5-39.5-39.5c-14.809,0-27.733,8.196-34.495,20.286c-3.824-2.696-8.481-4.286-13.505-4.286    c-12.958,0-23.5,10.542-23.5,23.5h15C383.5,87.063,387.313,83.25,392,83.25z"/>
		<path d="M56,83.25c4.687,0,8.5,3.813,8.5,8.5h15c0-13.509,10.991-24.5,24.5-24.5c13.509,0,24.5,10.991,24.5,24.5h15    c0-21.78-17.72-39.5-39.5-39.5c-14.809,0-27.733,8.196-34.495,20.286C65.681,69.84,61.024,68.25,56,68.25    c-12.958,0-23.5,10.542-23.5,23.5h15C47.5,87.063,51.313,83.25,56,83.25z"/>
		<path d="M495,444.75v-145h-15v145H255V293.856l16,16V283.75h240v-35.106L387.106,124.75h-240l-11.356-11.356L95,153.644V132.75H40    v75.894l-40,40v61.213l16-16V444.75H0v15h512v-15H495z M496,268.75H271v-9h225V268.75z M485.894,244.75H267.106l-25-25h218.787    L485.894,244.75z M445.894,204.75H227.106l-25-25h218.787L445.894,204.75z M380.894,139.75l25,25H187.106l-25-25H380.894z     M55,147.75h25v20.894l-25,25V147.75z M15,273.644v-18.787l120.5-120.5l120.5,120.5v18.787l-120.5-120.5L15,273.644z M192,444.75    H79v-17h113V444.75z M192,412.75H79v-17h113V412.75z M192,380.75H79v-17h113V380.75z M192,348.75H79v-17h113V348.75z M240,444.75    h-33v-128H64v128H31V278.856l104.5-104.5l104.5,104.5V444.75z"/>
		<path d="M312,316.75v80h-8v15h128v-15h-9v-80H312z M360,396.75h-33v-65h33V396.75z M408,396.75h-33v-65h33V396.75z"/>
	</g>
</g>















</svg>
