<?xml version="1.0" encoding="iso-8859-1"?>
<!-- Generator: Adobe Illustrator 19.0.0, SVG Export Plug-In . SVG Version: 6.00 Build 0)  -->
<svg xmlns="http://www.w3.org/2000/svg" xmlns:xlink="http://www.w3.org/1999/xlink" version="1.1" id="Layer_1" x="0px" y="0px" viewBox="0 0 511 511" style="enable-background:new 0 0 511 511;" xml:space="preserve" width="512" height="512">
<g>
	<polyline style="fill:#627B8C;" points="64,239 8,183 8,135 504,135 504,183 448,239  "/>
	<rect x="8" y="135" style="fill:#8CA4B8;" width="496" height="48"/>
	<rect x="184" y="231" style="fill:#A6E7FF;" width="144" height="208"/>
	<rect x="304" y="231" style="fill:#2AC3F2;" width="24" height="208"/>
	<rect x="64" y="183" style="fill:#A6E7FF;" width="120" height="256"/>
	<rect x="64" y="183" style="fill:#2AC3F2;" width="120" height="24"/>
	<rect x="64" y="375" style="fill:#8CA4B8;" width="120" height="64"/>
	<rect x="184" y="183" style="fill:#8CA4B8;" width="144" height="48"/>
	<rect x="184" y="183" style="fill:#627B8C;" width="144" height="24"/>
	<rect x="328" y="183" style="fill:#A6E7FF;" width="120" height="256"/>
	<rect x="328" y="183" style="fill:#2AC3F2;" width="120" height="24"/>
	<rect x="328" y="375" style="fill:#8CA4B8;" width="120" height="64"/>
	<rect x="32" y="439" style="fill:#627B8C;" width="448" height="32"/>
	<rect x="152" y="39" style="fill:#FEEF7F;" width="208" height="64"/>
	<rect x="336" y="39" style="fill:#EA9A10;" width="24" height="64"/>
	<g>
		<g>
			<rect x="280" y="63.5" style="fill:#FFFFFF;" width="16" height="15"/>
		</g>
		<g>
			<rect x="248" y="63.5" style="fill:#FFFFFF;" width="16" height="15"/>
		</g>
		<g>
			<rect x="216" y="63.5" style="fill:#FFFFFF;" width="16" height="15"/>
		</g>
	</g>
	<g>
		<path d="M511,186.106V128H335v-17h32V32H144v79h32v17H0v58.106l56,56.001V432H24v47h463v-47h-32V242.107L511,186.106z     M455,220.893V191h30.894L455,220.893z M159,96V47h193v49H159z M320,111v17H191v-17H320z M26.107,191H56v29.893L26.107,191z     M472,447v17H39v-17H472z M71,368V191h105v241H71v-49h89v-15H71z M248,239v176h15V239h57v193H191V239H248z M191,224v-33h129v33    H191z M440,383v49H335v-49H440z M335,368V191h105v177H335z M15,176v-33h481v33H15z"/>
		<rect x="116.5" y="203.402" transform="matrix(-0.7071 -0.7071 0.7071 -0.7071 39.8665 502.5121)" width="15" height="79.196"/>
		<rect x="96.5" y="200.373" transform="matrix(0.7071 0.7071 -0.7071 0.7071 188.1348 -8.2279)" width="15" height="45.255"/>
	</g>
</g>















</svg>
