<?xml version="1.0" encoding="iso-8859-1"?>
<!-- Generator: Adobe Illustrator 19.0.0, SVG Export Plug-In . SVG Version: 6.00 Build 0)  -->
<svg xmlns="http://www.w3.org/2000/svg" xmlns:xlink="http://www.w3.org/1999/xlink" version="1.1" id="Layer_1" x="0px" y="0px" viewBox="0 0 496.962 496.962" style="enable-background:new 0 0 496.962 496.962;" xml:space="preserve" width="512" height="512">
<g>
	<rect x="56.981" y="232.962" style="fill:#8CA4B8;" width="48" height="192"/>
	<rect x="80.981" y="232.962" style="fill:#627B8C;" width="24" height="192"/>
	<rect x="392.981" y="232.962" style="fill:#8CA4B8;" width="48" height="192"/>
	<rect x="416.981" y="232.962" style="fill:#627B8C;" width="24" height="192"/>
	<rect x="280.981" y="232.962" style="fill:#8CA4B8;" width="48" height="192"/>
	<rect x="304.981" y="232.962" style="fill:#627B8C;" width="24" height="192"/>
	<rect x="168.981" y="232.962" style="fill:#8CA4B8;" width="48" height="192"/>
	<rect x="192.981" y="232.962" style="fill:#627B8C;" width="24" height="192"/>
	<polyline style="fill:#627B8C;" points="120.981,200.962 120.981,232.962 40.981,232.962 40.981,200.962  "/>
	<polyline style="fill:#627B8C;" points="232.981,200.962 232.981,232.962 152.981,232.962 152.981,200.962  "/>
	<polyline style="fill:#627B8C;" points="344.981,200.962 344.981,232.962 264.981,232.962 264.981,200.962  "/>
	<polyline style="fill:#627B8C;" points="456.981,200.962 456.981,232.962 376.981,232.962 376.981,200.962  "/>
	<polyline style="fill:#8CA4B8;" points="456.981,168.962 248.981,8.962 40.981,168.962  "/>
	<g>
		<g>
			<rect x="272.981" y="105.462" style="fill:#FFFFFF;" width="16" height="15"/>
		</g>
		<g>
			<rect x="240.981" y="105.462" style="fill:#FFFFFF;" width="16" height="15"/>
		</g>
		<g>
			<rect x="208.981" y="105.462" style="fill:#FFFFFF;" width="16" height="15"/>
		</g>
	</g>
	<rect x="24.981" y="168.962" style="fill:#627B8C;" width="448" height="32"/>
	<polyline style="fill:#627B8C;" points="40.981,456.962 40.981,424.962 456.981,424.962 456.981,456.962  "/>
	<rect x="24.981" y="456.962" style="fill:#627B8C;" width="448" height="32"/>
	<path d="M463.981,240.962v-32h16v-47h-20.449L248.981,0L38.43,161.962H16.981v47h16v32h16v25h-8v15h8v137h-16v32h-16v47h463v-47   h-16v-32h-16v-137h9v-15h-9v-25H463.981z M248.981,18.925L434.93,161.962H63.032L248.981,18.925z M31.981,193.962v-17h433v17   H31.981z M384.981,240.962v25h-8v15h8v137h-49v-137h9v-15h-9v-25h16v-32h17v32H384.981z M287.981,265.962v-25h33v25H287.981z    M320.981,280.962v137h-33v-137H320.981z M271.981,225.962v-17h65v17H271.981z M272.981,280.962v137h-49v-137h9v-15h-9v-25h16v-32   h17v32h16v25h-8v15H272.981z M175.981,265.962v-25h33v25H175.981z M208.981,280.962v137h-33v-137H208.981z M159.981,225.962v-17h65   v17H159.981z M160.981,280.962v137h-97v-137h33v120h15v-120h9v-15h-9v-25h16v-32h17v32h16v25h-8v15H160.981z M63.981,265.962v-25   h33v25H63.981z M47.981,225.962v-17h65v17H47.981z M448.981,432.962v17h-72v15h88v17h-433v-17h329v-15h-313v-17H448.981z    M432.981,280.962v137h-33v-137H432.981z M399.981,265.962v-25h33v25H399.981z M383.981,225.962v-17h65v17H383.981z"/>
</g>















</svg>
