<?xml version="1.0" encoding="iso-8859-1"?>
<!-- Generator: Adobe Illustrator 19.0.0, SVG Export Plug-In . SVG Version: 6.00 Build 0)  -->
<svg xmlns="http://www.w3.org/2000/svg" xmlns:xlink="http://www.w3.org/1999/xlink" version="1.1" id="Layer_1" x="0px" y="0px" viewBox="0 0 512 512" style="enable-background:new 0 0 512 512;" xml:space="preserve" width="512" height="512">
<g>
	<rect x="56.5" y="368" style="fill:#627B8C;" width="400" height="104"/>
	<rect x="56.5" y="368" style="fill:#8CA4B8;" width="32" height="104"/>
	<rect x="56.5" y="368" style="fill:#627B8C;" width="32" height="24"/>
	<rect x="136.5" y="368" style="fill:#8CA4B8;" width="32" height="104"/>
	<rect x="136.5" y="368" style="fill:#627B8C;" width="32" height="24"/>
	<rect x="344.5" y="368" style="fill:#8CA4B8;" width="32" height="104"/>
	<rect x="344.5" y="368" style="fill:#627B8C;" width="32" height="24"/>
	<rect x="424.5" y="368" style="fill:#8CA4B8;" width="32" height="104"/>
	<rect x="424.5" y="368" style="fill:#627B8C;" width="32" height="24"/>
	<rect x="56.5" y="208" style="fill:#8CA4B8;" width="400" height="128"/>
	<rect x="432.5" y="208" style="fill:#627B8C;" width="24" height="128"/>
	<rect x="192.5" y="127.999" style="fill:#627B8C;" width="128" height="48.001"/>
	<path style="fill:#8CA4B8;" d="M192.5,95.999c0-35.346,28.654-63.999,64-63.999h0c35.346,0,64,28.654,64,64"/>
	<path style="fill:#627B8C;" d="M224.5,95.999c0-35.346,14.327-63.999,32-63.999l0,0c17.673,0,32,28.654,32,64"/>
	<rect x="176.5" y="96" style="fill:#8CA4B8;" width="160" height="32"/>
	<rect x="312.5" y="96" style="fill:#627B8C;" width="24" height="32"/>
	<g>
		<g>
			<rect x="280.5" y="144.5" style="fill:#FFFFFF;" width="16" height="15"/>
		</g>
		<g>
			<rect x="248.5" y="144.5" style="fill:#FFFFFF;" width="16" height="15"/>
		</g>
		<g>
			<rect x="216.5" y="144.5" style="fill:#FFFFFF;" width="16" height="15"/>
		</g>
	</g>
	<rect x="32.5" y="176" style="fill:#8CA4B8;" width="448" height="32"/>
	<rect x="456.5" y="176" style="fill:#627B8C;" width="24" height="32"/>
	<path style="fill:#A6E7FF;" d="M112.5,304h-32v-48c0-8.837,7.163-16,16-16l0,0c8.837,0,16,7.163,16,16V304z"/>
	<rect x="224.5" y="400" style="fill:#A6E7FF;" width="64" height="72"/>
	<path style="fill:#A6E7FF;" d="M192.5,304h-32v-48c0-8.837,7.163-16,16-16l0,0c8.837,0,16,7.163,16,16V304z"/>
	<path style="fill:#A6E7FF;" d="M272.5,304h-32v-48c0-8.837,7.163-16,16-16l0,0c8.837,0,16,7.163,16,16V304z"/>
	<path style="fill:#A6E7FF;" d="M352.5,304h-32v-48c0-8.837,7.163-16,16-16l0,0c8.837,0,16,7.163,16,16V304z"/>
	<path style="fill:#A6E7FF;" d="M432.5,304h-32v-48c0-8.837,7.163-16,16-16l0,0c8.837,0,16,7.163,16,16V304z"/>
	<rect x="32.5" y="336" style="fill:#8CA4B8;" width="448" height="32"/>
	<rect x="456.5" y="336" style="fill:#627B8C;" width="24" height="32"/>
	<rect x="32.5" y="472" style="fill:#627B8C;" width="448" height="32"/>
	<g>
		<path d="M487.5,216v-47h-160v-33h16V89h-15.895C324.102,55,297.5,28.398,263.5,24.895V0h-15v24.895    C215.5,28.398,188.898,55,185.395,89H168.5v47h16v33h-160v47h24v113h-24v47h24v89h-24v47h463v-47h-24v-89h24v-47h-24V216H487.5z     M312.487,89h-16.699c-0.837-16-4.212-29.398-9.719-40.62C300.192,57.09,310.2,71,312.487,89z M240.581,54.349    C245.22,45.071,251.023,39.5,256.5,39.5c5.478,0,11.28,5.571,15.919,14.849c4.655,9.31,7.542,20.651,8.344,34.651h-48.527    C233.039,75,235.926,63.659,240.581,54.349z M226.931,48.38C221.424,59.602,218.05,73,217.212,89h-16.699    C202.8,71,212.808,57.09,226.931,48.38z M183.5,121v-17h145v17H183.5z M312.5,136v33h-113v-33H312.5z M472.5,480v17h-433v-17    H472.5z M63.5,465v-89h17v89H63.5z M95.5,465v-89h33v89H95.5z M143.5,465v-89h17v89H143.5z M192.5,393v15h16v57h-33v-89h161v89    h-33v-57h17v-15H192.5z M288.5,408v57h-25v-57H288.5z M248.5,408v57h-25v-57H248.5z M383.5,448v-72h33v89h-65v-89h17v72H383.5z     M431.5,465v-89h17v89H431.5z M472.5,344v17h-433v-17H472.5z M128.5,232v97h-65V216h145v113h-65v-97H128.5z M223.5,329V216h65v113    H223.5z M303.5,329V216h65v113H303.5z M383.5,329V216h65v113H383.5z M39.5,201v-17h433v17H39.5z"/>
		<path d="M96,232.5c-12.958,0-23.5,10.542-23.5,23.5v56h47v-56C119.5,243.042,108.958,232.5,96,232.5z M104.5,297h-17v-41    c0-4.687,3.813-8.5,8.5-8.5s8.5,3.813,8.5,8.5V297z"/>
		<path d="M199.5,256c0-12.958-10.542-23.5-23.5-23.5s-23.5,10.542-23.5,23.5v56h47V256z M184.5,297h-17v-41    c0-4.687,3.814-8.5,8.5-8.5s8.5,3.813,8.5,8.5V297z"/>
		<path d="M256,232.5c-12.958,0-23.5,10.542-23.5,23.5v56h47v-56C279.5,243.042,268.958,232.5,256,232.5z M264.5,297h-17v-41    c0-4.687,3.814-8.5,8.5-8.5s8.5,3.813,8.5,8.5V297z"/>
		<path d="M336,232.5c-12.958,0-23.5,10.542-23.5,23.5v56h47v-56C359.5,243.042,348.958,232.5,336,232.5z M344.5,297h-17v-41    c0-4.687,3.814-8.5,8.5-8.5s8.5,3.813,8.5,8.5V297z"/>
		<path d="M416,232.5c-12.958,0-23.5,10.542-23.5,23.5v56h47v-56C439.5,243.042,428.958,232.5,416,232.5z M424.5,297h-17v-41    c0-4.687,3.814-8.5,8.5-8.5s8.5,3.813,8.5,8.5V297z"/>
	</g>
</g>















</svg>
