<?xml version="1.0" encoding="iso-8859-1"?>
<!-- Generator: Adobe Illustrator 19.0.0, SVG Export Plug-In . SVG Version: 6.00 Build 0)  -->
<svg xmlns="http://www.w3.org/2000/svg" xmlns:xlink="http://www.w3.org/1999/xlink" version="1.1" id="Layer_1" x="0px" y="0px" viewBox="0 0 512 512" style="enable-background:new 0 0 512 512;" xml:space="preserve" width="512" height="512">
<g>
	<rect x="32.5" y="312" style="fill:#E8F4FA;" width="448" height="192"/>
	<rect x="456.5" y="312" style="fill:#B0D7EB;" width="24" height="192"/>
	<polyline style="fill:#87E6DE;" points="72.5,264 72.5,208 80.5,200 80.5,160 104.5,160 104.5,200 112.5,208 112.5,264  "/>
	<polygon style="fill:#1CB7BD;" points="112.5,208 112.5,264 96.5,264 96.5,160 104.5,160 104.5,200  "/>
	<rect x="8.5" y="264" style="fill:#8CA4B8;" width="496" height="48"/>
	<g>
		<g>
			<rect x="280.5" y="280.5" style="fill:#FFFFFF;" width="16" height="15"/>
		</g>
		<g>
			<rect x="248.5" y="280.5" style="fill:#FFFFFF;" width="16" height="15"/>
		</g>
		<g>
			<rect x="216.5" y="280.5" style="fill:#FFFFFF;" width="16" height="15"/>
		</g>
	</g>
	<rect x="480.5" y="264" style="fill:#627B8C;" width="24" height="48"/>
	<polygon style="fill:#8CA4B8;" points="208.5,120 208.5,112 256.5,64 304.5,112 304.5,120  "/>
	<polygon style="fill:#8CA4B8;" points="80.5,120 80.5,112 128.5,64 176.5,112 176.5,120  "/>
	<polygon style="fill:#8CA4B8;" points="336.5,120 336.5,112 384.5,64 432.5,112 432.5,120  "/>
	<rect x="80.5" y="344" style="fill:#FF907A;" width="96" height="32"/>
	<rect x="152.5" y="344" style="fill:#FF512E;" width="24" height="32"/>
	<rect x="208.5" y="344" style="fill:#FF907A;" width="96" height="32"/>
	<rect x="280.5" y="344" style="fill:#FF512E;" width="24" height="32"/>
	<g>
		<rect x="336.5" y="344" style="fill:#FF907A;" width="96" height="32"/>
		<rect x="408.5" y="344" style="fill:#FF512E;" width="24" height="32"/>
	</g>
	<polygon style="fill:#FF907A;" points="160.5,232 184.5,208 184.5,200 136.5,200 136.5,208  "/>
	<g>
		<path d="M167.5,257v-21.894l24-24V193h-63v18.106l24,24V257h-73v-45.894l8-8V168h9v35.106l8,8V240h15v-35.106l-8-8V153h-39v43.894    l-8,8V257h-64v63h472v177h-49v-41h9v-15h-9v-57h16v-47h-111v47h16v57h-8v15h8v41h-49v-41h9v-15h-9v-57h16v-47h-111v47h16v57h-8v15    h8v41h-49v-41h9v-15h-9v-57h16v-47h-111v47h16v57h-8v15h8v41h-49V336h-15v176h463V320h24v-63H167.5z M87.5,369v-17h81v17H87.5z     M152.5,497h-49v-41h49V497z M152.5,441h-49v-57h49V441z M215.5,369v-17h81v17H215.5z M280.5,497h-49v-41h49V497z M280.5,441h-49    v-57h49V441z M343.5,369v-17h81v17H343.5z M408.5,497h-49v-41h49V497z M408.5,441h-49v-57h49V441z M146.606,208h27.787    L160.5,221.894L146.606,208z M496.5,305h-481v-33h481V305z"/>
		<path d="M311.5,108.894l-48-48V0h-15v60.894l-48,48V128h111V108.894z M218.606,113L256.5,75.106L294.394,113H218.606z"/>
		<path d="M183.5,108.894l-48-48V0h-15v60.894l-48,48V128h111V108.894z M90.606,113L128.5,75.106L166.394,113H90.606z"/>
		<path d="M439.5,108.894l-48-48V0h-15v60.894l-48,48V128h111V108.894z M346.606,113L384.5,75.106L422.394,113H346.606z"/>
	</g>
</g>















</svg>
