<?xml version="1.0" encoding="iso-8859-1"?>
<!-- Generator: Adobe Illustrator 19.0.0, SVG Export Plug-In . SVG Version: 6.00 Build 0)  -->
<svg xmlns="http://www.w3.org/2000/svg" xmlns:xlink="http://www.w3.org/1999/xlink" version="1.1" id="Layer_1" x="0px" y="0px" viewBox="0 0 511 511" style="enable-background:new 0 0 511 511;" xml:space="preserve" width="512" height="512">
<g>
	<g>
		<polyline style="fill:#B0D7EB;" points="360,471 360,503 152,503 152,471   "/>
	</g>
	<rect x="136" y="159" style="fill:#E8F4FA;" width="240" height="312"/>
	<rect x="352" y="159" style="fill:#B0D7EB;" width="24" height="312"/>
	<polyline style="fill:#87E6DE;" points="152,79 152,31 176,7 200,7 224,31 360,31 360,79  "/>
	<rect x="336" y="31" style="fill:#1CB7BD;" width="24" height="48"/>
	<rect x="136" y="79" style="fill:#B0D7EB;" width="240" height="32"/>
	<rect x="120" y="111" style="fill:#B0D7EB;" width="272" height="48"/>
	<rect x="120" y="231" style="fill:#87E6DE;" width="272" height="168"/>
	<g>
		<g>
			<rect x="280" y="307.5" style="fill:#FFFFFF;" width="16" height="15"/>
		</g>
		<g>
			<rect x="248" y="307.5" style="fill:#FFFFFF;" width="16" height="15"/>
		</g>
		<g>
			<rect x="216" y="307.5" style="fill:#FFFFFF;" width="16" height="15"/>
		</g>
	</g>
	<rect x="368" y="231" style="fill:#1CB7BD;" width="24" height="168"/>
	<path d="M399,167v-63h-16V72H159V34.106L179.106,15h17.787l24,24H352v16h15V24H227.106l-24-24h-30.213L144,27.894V72h-16v32h-16v63   h16v57h-16v183h256v57H143v-41h-15v56h16v32h223v-32h16v-72h16V224h-16v-57H399z M352,496H159v-17h193V496z M143,87h225v17H143V87z    M384,239v153H127V239H384z M143,224v-57h225v57H143z M127,152v-33h257v33H127z"/>
</g>















</svg>
