<?xml version="1.0" encoding="iso-8859-1"?>
<!-- Generator: Adobe Illustrator 19.0.0, SVG Export Plug-In . SVG Version: 6.00 Build 0)  -->
<svg xmlns="http://www.w3.org/2000/svg" xmlns:xlink="http://www.w3.org/1999/xlink" version="1.1" id="Layer_1" x="0px" y="0px" viewBox="0 0 511 511" style="enable-background:new 0 0 511 511;" xml:space="preserve" width="512" height="512">
<g>
	<path style="fill:#FF512E;" d="M407.5,47h16c8.837,0,16-7.163,16-16l0,0c0-8.837-7.163-16-16-16h-16"/>
	<path style="fill:#FF512E;" d="M103.5,47h-16c-8.837,0-16-7.163-16-16l0,0c0-8.837,7.163-16,16-16h16"/>
	<rect x="319.5" y="463" style="fill:#8CA4B8;" width="112" height="32"/>
	<rect x="79.5" y="463" style="fill:#8CA4B8;" width="112" height="32"/>
	<polyline style="fill:#627B8C;" points="335.5,463 335.5,431 415.5,431 415.5,463  "/>
	<polyline style="fill:#627B8C;" points="95.5,463 95.5,431 175.5,431 175.5,463  "/>
	<polyline style="fill:#FF907A;" points="399.5,207 399.5,431 351.5,431 351.5,207  "/>
	<polyline style="fill:#FF512E;" points="399.5,207 399.5,431 375.5,431 375.5,207  "/>
	<polyline style="fill:#8CA4B8;" points="399.5,319 399.5,351 351.5,351 351.5,319  "/>
	<polyline style="fill:#627B8C;" points="399.5,319 399.5,351 375.5,351 375.5,319  "/>
	<polyline style="fill:#FF907A;" points="159.5,207 159.5,431 111.5,431 111.5,207  "/>
	<polyline style="fill:#FF512E;" points="159.5,207 159.5,431 135.5,431 135.5,207  "/>
	<polyline style="fill:#8CA4B8;" points="159.5,319 159.5,351 111.5,351 111.5,319  "/>
	<polyline style="fill:#627B8C;" points="159.5,319 159.5,351 135.5,351 135.5,319  "/>
	<g>
		<path style="fill:#FEEF7F;" d="M135.5,175v40c0,13.255-10.745,24-24,24l0,0c-13.255,0-24-10.745-24-24v-40"/>
		<path style="fill:#FEEF7F;" d="M183.5,175v40c0,13.255-10.745,24-24,24l0,0c-13.255,0-24-10.745-24-24v-40"/>
		<path style="fill:#FEEF7F;" d="M423.5,175v40c0,13.255-10.745,24-24,24l0,0c-13.255,0-24-10.745-24-24v-40"/>
		<path style="fill:#FEEF7F;" d="M327.5,175v40c0,13.255-10.745,24-24,24l0,0c-13.255,0-24-10.745-24-24v-40"/>
		<path style="fill:#FEEF7F;" d="M231.5,175v40c0,13.255-10.745,24-24,24l0,0c-13.255,0-24-10.745-24-24v-40"/>
		<path style="fill:#FEEF7F;" d="M279.5,175v40c0,13.255-10.745,24-24,24l0,0c-13.255,0-24-10.745-24-24v-40"/>
		<path style="fill:#FEEF7F;" d="M375.5,175v40c0,13.255-10.745,24-24,24l0,0c-13.255,0-24-10.745-24-24v-40"/>
	</g>
	<rect x="87.5" y="175" style="fill:#EA9A10;" width="336" height="24"/>
	<path style="fill:#FF512E;" d="M39.5,175h-16c-8.837,0-16-7.163-16-16l0,0c0-8.837,7.163-16,16-16h16"/>
	<path style="fill:#FF512E;" d="M471.5,175h16c8.837,0,16-7.163,16-16l0,0c0-8.837-7.163-16-16-16h-16"/>
	<polygon style="fill:#FF907A;" points="447.5,175 63.5,175 127.5,47 383.5,47  "/>
	<g>
		<g>
			<rect x="279.5" y="87.5" style="fill:#FFFFFF;" width="16" height="15"/>
		</g>
		<g>
			<rect x="247.5" y="87.5" style="fill:#FFFFFF;" width="16" height="15"/>
		</g>
		<g>
			<rect x="215.5" y="87.5" style="fill:#FFFFFF;" width="16" height="15"/>
		</g>
	</g>
	<polygon style="fill:#FF512E;" points="447.5,175 63.5,175 79.5,143 431.5,143  "/>
	<path d="M487.5,136h-32v14.5c4.687,0,8.5,4.064,8.5,8.75s-3.813,8.75-8.5,8.75h-3.365l-56.5-113H423.5   c12.958,0,23.5-10.542,23.5-23.5S436.458,8,423.5,8h-32v14.5c4.687,0,8.5,4.063,8.5,8.75S396.187,40,391.5,40h-272   c-4.687,0-8.5-4.063-8.5-8.75s3.813-8.75,8.5-8.75V8h-32C74.542,8,64,18.542,64,31.5S74.542,55,87.5,55h27.865l-56.5,113H55.5   c-4.687,0-8.5-4.064-8.5-8.75s3.813-8.75,8.5-8.75V136h-32C10.542,136,0,146.542,0,159.5S10.542,183,23.5,183h56v32   c0,14.785,11,27.216,24,30.591V424h-16v32h-16v47h127v-47h-16v-32h-16V263h-15v49h-33v-66.409c7-1.603,12.523-5.249,16.75-10.222   c5.783,6.803,14.518,11.131,24.125,11.131s18.28-4.328,24.063-11.131c5.783,6.803,14.424,11.131,24.031,11.131   c9.607,0,18.233-4.328,24.016-11.131c5.783,6.803,14.401,11.131,24.008,11.131c9.607,0,18.221-4.328,24.004-11.131   c5.783,6.803,14.395,11.131,24.002,11.131c9.607,0,17.969-4.328,23.751-11.131c4.227,4.973,10.251,8.619,16.251,10.222V424h-16v32   h-16v47h127v-47h-16v-32h-16V245.591c14-3.375,24-15.806,24-30.591v-32h57c12.958,0,23.5-10.542,23.5-23.5S500.458,136,487.5,136z    M413.403,23H423.5c4.687,0,8.5,3.813,8.5,8.5s-3.813,8.5-8.5,8.5h-10.097c1.027-3,1.597-5.503,1.597-8.5S414.43,25,413.403,23z    M97.597,40H87.5c-4.687,0-8.5-3.813-8.5-8.5s3.813-8.5,8.5-8.5h10.097C96.57,25,96,28.503,96,31.5S96.57,37,97.597,40z    M33.597,168H23.5c-4.687,0-8.5-3.814-8.5-8.5s3.813-8.5,8.5-8.5h10.097C32.57,153,32,156.503,32,159.5S32.57,165,33.597,168z    M183.5,471v17h-97v-17H183.5z M167.5,439v17h-65v-17H167.5z M118.5,424v-65h33v65H118.5z M151.5,327v17h-33v-17H151.5z M127.5,215   c0,9.098-7.402,16.5-16.5,16.5s-16.5-7.402-16.5-16.5v-32h33V215z M175.5,215c0,9.098-7.402,16.5-16.5,16.5s-16.5-7.402-16.5-16.5   v-32h33V215z M223.5,215c0,9.098-7.402,16.5-16.5,16.5s-16.5-7.402-16.5-16.5v-32h33V215z M271.5,215c0,9.098-7.402,16.5-16.5,16.5   c-9.098,0-16.5-7.402-16.5-16.5v-32h33V215z M319.5,215c0,9.098-7.402,16.5-16.5,16.5c-9.098,0-16.5-7.402-16.5-16.5v-32h33V215z    M334.5,215v-32h33v32c0,9.098-7.402,16.5-16.5,16.5C341.902,231.5,334.5,224.098,334.5,215z M358.5,344v-17h33v17H358.5z    M391.5,359v65h-33v-65H391.5z M358.5,312v-66.409c7-1.603,12.273-5.249,16.5-10.222c4.227,4.973,10.5,8.619,16.5,10.222V312H358.5   z M423.5,471v17h-97v-17H423.5z M407.5,439v17h-65v-17H407.5z M415.5,215c0,9.098-7.402,16.5-16.5,16.5   c-9.098,0-16.5-7.402-16.5-16.5v-32h33V215z M75.635,168l8.5-17H399.5v-15H91.635l40.5-81h246.729l56.5,113H75.635z M487.5,168   h-10.097c1.027-3,1.597-5.503,1.597-8.5s-0.57-6.5-1.597-8.5H487.5c4.687,0,8.5,3.814,8.5,8.5S492.187,168,487.5,168z"/>
</g>















</svg>
